
<svg xmlns="http://www.w3.org/2000/svg" version="1.1" xmlns:xlink="http://www.w3.org/1999/xlink" preserveAspectRatio="none" x="0px" y="0px" width="1024px" height="1024px" viewBox="0 0 1024 1024">
<defs>
<g id="Layer2_0_FILL">
<path fill="#B75CFF" stroke="none" d="
M 294.5 230.5
L 228.7 285.55 358.2 230.5 294.5 230.5
M 221.55 393.4
L 228.7 285.55 100.05 393.15 100.05 420.7 409.55 729.35 221.55 411.25 221.55 393.4 Z"/>

<path fill="#5C6CFF" stroke="none" d="
M 374.45 393.65
L 392.35 280.85 518.8 230.5 358.2 230.5 228.7 285.55 221.55 393.4 221.55 411.25 409.55 729.35 518.8 838.3 481.9 726.45 374.45 411.5 374.45 393.65 Z"/>

<path fill="#5CFF9D" stroke="none" d="
M 392.35 280.85
L 374.45 393.65 374.45 411.5 481.9 726.45 518.8 838.3 555.7 726.45 518.8 420.7 591.05 406.8 591.05 397.7 518.8 383.75 392.35 280.85 Z"/>

<path fill="#FFDB5C" stroke="none" d="
M 663.15 411.5
L 663.15 393.65 645.25 280.85 518.8 230.5 392.35 280.85 518.8 383.75 591.05 397.7 591.05 406.8 518.8 420.7 555.7 726.45 663.15 411.5 Z"/>

<path fill="#FF5C5C" stroke="none" d="
M 808.9 285.55
L 816.05 393.4 816.05 411.25 628.05 729.35 937.55 420.7 937.55 393.15 808.9 285.55
M 808.9 285.55
L 743.1 230.5 679.4 230.5 808.9 285.55 Z"/>

<path fill="#F79454" stroke="none" d="
M 808.9 285.55
L 679.4 230.5 518.8 230.5 645.25 280.85 663.15 393.65 663.15 411.5 555.7 726.45 518.8 838.3 628.05 729.35 816.05 411.25 816.05 393.4 808.9 285.55 Z"/>
</g>

<g id="Layer1_0_FILL">
<path fill="#000000" fill-opacity="0.09803921568627451" stroke="none" d="
M 591.05 406.8
L 591.05 397.7 518.8 383.75 446.55 397.7 446.55 406.8 518.8 420.7 481.9 726.45 221.55 411.25 409.55 729.35 518.8 838.3 628.05 729.35 816.05 411.25 555.7 726.45 663.15 411.5 591.05 406.8
M 129.35 413.65
L 158.65 406.6 158.65 397.55 100.05 393.15 100.05 420.7 409.55 729.35 129.35 413.65
M 293.7 406.5
L 293.7 397.7 221.55 393.4 221.55 411.25 293.7 406.5
M 743.9 397.7
L 743.9 406.5 816.05 411.25 816.05 393.4 743.9 397.7
M 878.95 397.55
L 878.95 406.6 908.25 413.65 628.05 729.35 937.55 420.7 937.55 393.15 878.95 397.55 Z"/>

<path fill="#FFFFFF" fill-opacity="0.09803921568627451" stroke="none" d="
M 158.65 397.55
L 158.65 406.6 221.55 411.25 221.55 393.4 158.65 397.55
M 293.7 397.7
L 293.7 406.5 374.45 411.5 446.55 406.8 446.55 397.7 374.45 393.65 293.7 397.7
M 294.5 230.5
L 228.7 285.55 358.2 230.5 294.5 230.5
M 358.2 230.5
L 392.35 280.85 518.8 383.75 645.25 280.85 679.4 230.5 358.2 230.5
M 743.9 406.5
L 743.9 397.7 663.15 393.65 591.05 397.7 591.05 406.8 663.15 411.5 743.9 406.5
M 878.95 406.6
L 878.95 397.55 816.05 393.4 816.05 411.25 878.95 406.6
M 808.9 285.55
L 743.1 230.5 679.4 230.5 808.9 285.55 Z"/>
</g>

<path id="Layer0_0_1_STROKES" stroke="#000000" stroke-width="3" stroke-linejoin="round" stroke-linecap="round" fill="none" d="
M 294.5 230.5
L 743.1 230.5 937.55 393.15 937.55 420.7 518.8 838.3 100.05 420.7 100.05 393.15 294.5 230.5 Z"/>
</defs>

<g transform="matrix( 1, 0, 0, 1, 0,0) ">
<use xlink:href="#Layer2_0_FILL"/>
</g>

<g transform="matrix( 1, 0, 0, 1, 0,0) ">
<use xlink:href="#Layer1_0_FILL"/>
</g>

<g transform="matrix( 1, 0, 0, 1, 0,0) ">
<use xlink:href="#Layer0_0_1_STROKES"/>
</g>
</svg>
