<svg
  xmlns="http://www.w3.org/2000/svg"
  version="1.1"
  xmlns:xlink="http://www.w3.org/1999/xlink"
  preserveAspectRatio="none"
  x="0px"
  y="0px"
  width="960px"
  height="225px"
  viewBox="0 0 960 225"
>
  <defs />

  <g id="Layer_1">
    <path
      fill="#FFFFFF"
      stroke="none"
      d="
M 721.95 176.75
L 736.9 176.75 736.9 72.95 721.95 72.95 721.95 176.75
M 270.55 94.65
Q 269.55 91.15 267.75 88 263.95 81.4 257.4 77.35 250.85 73.4 242.75 73.1 242.35 73.1 242 73.1 241.6 73.1 241.25 73.1
L 209.7 73.1
Q 201.3 73.15 194.6 77.2 187.85 81.25 183.95 88 182.05 91.3 181.05 95 180.05 98.65 180.05 102.7 180.05 106.75 181.05 110.5 182.05 114.2 183.95 117.4 185.8 120.7 188.45 123.45 192.5 127.6 197.95 130 203.35 132.35 209.7 132.4
L 242 132.4
Q 248.25 132.55 252.45 136.7 256.55 140.85 256.7 147.1 256.55 153.35 252.45 157.5 248.25 161.65 242 161.8
L 209.7 161.8
Q 203.7 161.65 199.55 157.7 195.45 153.8 195 147.9
L 180.05 147.9
Q 180.15 151.7 181.15 155.2 182.1 158.7 183.95 161.8 187.9 168.6 194.6 172.65 201.3 176.65 209.7 176.75
L 242 176.75
Q 250.35 176.65 257.05 172.65 263.85 168.6 267.75 161.8 269.65 158.55 270.65 154.8 271.6 151.15 271.7 147.1 271.6 143.1 270.65 139.35 269.65 135.6 267.75 132.4 263.85 125.55 257.05 121.6 250.35 117.55 242 117.4
L 212.3 117.4
Q 211.05 117.35 209.7 117.35 208.95 117.35 208.25 117.35 202.55 116.65 198.8 112.6 195.05 108.6 195 102.7 195.15 96.45 199.25 92.35 203.45 88.15 209.7 88
L 242.55 88
Q 248.4 88.4 252.3 92.3 256.25 96.15 256.7 101.95
L 271.7 101.95
Q 271.55 98.15 270.55 94.65
M 342.7 117.35
L 332.85 99.45 290.05 176.75 309.75 176.75 342.7 117.35
M 347.65 72.8
L 337.75 90.6 385.4 176.75 405.15 176.75 347.65 72.8
M 499.85 87.25
Q 496.35 81.15 490.45 77.4 484.6 73.6 477.2 73.15
L 420.15 73.15 420.15 176.75 435.1 176.75 435.1 128.45 478.15 128.45 477.9 128.3
Q 485.15 127.6 490.85 123.9 496.55 120.1 499.9 114.05 503.25 108.1 503.35 100.75 503.25 93.25 499.85 87.25
M 474.65 88.15
Q 474.8 88.15 474.85 88.15 475.3 88.1 475.75 88.1 481.1 88.25 484.7 91.8 488.25 95.4 488.4 100.75 488.25 106.15 484.7 109.7 481.1 113.3 475.75 113.45
L 435.1 113.45 435.1 88.15 474.65 88.15
M 597.95 87.25
Q 594.45 81.15 588.55 77.4 582.7 73.6 575.3 73.15
L 518.25 73.15 518.25 176.75 533.2 176.75 533.2 128.45 576.25 128.45 576 128.3
Q 583.25 127.6 588.95 123.9 594.65 120.1 598 114.05 601.35 108.1 601.45 100.75 601.35 93.25 597.95 87.25
M 572.75 88.15
Q 572.9 88.15 572.95 88.15 573.4 88.1 573.85 88.1 579.2 88.25 582.8 91.8 586.35 95.4 586.5 100.75 586.35 106.15 582.8 109.7 579.2 113.3 573.85 113.45
L 533.2 113.45 533.2 88.15 572.75 88.15
M 707 73.3
L 692.1 73.3 692.1 113.9 631.3 113.9 631.3 73.3 616.35 73.3 616.35 176.75 631.3 176.75 631.3 128.85 692.1 128.85 692.1 176.75 707 176.75 707 73.3
M 879.85 95.55
L 864.85 95.55 864.85 176.75 956.5 176.75 956.5 161.8 879.85 161.8 879.85 128.7 946.5 128.7 946.5 113.7 879.85 113.7 879.85 95.55
M 836.55 87.8
Q 837.75 82.3 837.85 76.5 837.85 74.6 837.7 72.85
L 751.75 72.85 751.75 176.75 766.7 176.75 766.7 128.4 785.95 128.4
Q 786.5 128.4 787.05 128.3 787.25 128.3 787.55 128.3 788 128.3 788.4 128.3 788.55 128.3 788.65 128.3 789.25 128.25 789.85 128.25
L 789.95 128.25
Q 790.55 128.15 791.2 128.1 791.75 128 792.3 128 792.45 127.9 792.65 127.9 793.2 127.85 793.65 127.75 793.9 127.75 794.1 127.7 794.5 127.6 794.9 127.6 796.25 127.4 797.55 127 798.15 126.95 798.7 126.8 798.85 126.7 799 126.7 799.35 126.65 799.75 126.5 799.9 126.5 800 126.4
L 830.7 176.75 848.1 176.75 813.7 120.3
Q 813.85 120.25 814 120.1 814.05 120.1 814.15 120 814.55 119.75 814.9 119.45
L 815 119.45
Q 815.45 119.15 815.85 118.85 816.75 118.25 817.6 117.55 817.8 117.4 818.05 117.25 818.35 116.95 818.7 116.75 819.2 116.35 819.65 115.95 819.65 115.9 819.7 115.9 820 115.6 820.4 115.3 821.4 114.35 822.4 113.4 827.65 108.2 831.3 101.7 834.85 95.25 836.55 87.8
M 821.1 87.8
Q 819.7 92.05 817.45 95.8 815.05 99.6 811.85 102.8 809.35 105.2 806.55 107.15 803.7 109.05 800.6 110.4 797.15 111.85 793.5 112.6 789.75 113.4 785.95 113.4
L 766.7 113.4 766.7 87.8 821.1 87.8
M 956.5 88.1
L 956.5 73.15 864.85 73.15 864.85 88.1 956.5 88.1 Z"
    />

    <g
      id="Layer_1"
      transform="matrix( 0.189971923828125, 0, 0, 0.189971923828125, 101.3,125) "
    >
      <path
        fill="#4782DE"
        stroke="none"
        d="
M 142.7 287.2
L 142.75 287.25 190.85 239.1 191.1 238.8 142.7 287.2
M -17.7 447.65
L -34.2 464.2 0 498.4 225.35 273.05 225.35 204.6 190.85 239.1 0 468.95 -17.7 447.65
M 17.75 -430.5
L 42.8 -455.6 0 -498.4 -225.35 -273.05 -225.35 -187.4 -191.1 -221.65 -189.8 -223 -191.1 -221.7 0 -451.9 17.75 -430.5 Z"
      />

      <path
        fill="#69A0F5"
        stroke="none"
        d="
M -191.1 8.5
L -191.1 214.7 191.1 76.5 191.1 -194.4 -191.1 8.5 Z"
      />

      <path
        fill="#0F52BA"
        stroke="none"
        d="
M -191.1 214.7
L -191.1 238.75 -17.7 447.65 0 468.95 190.85 239.1 142.75 287.25 142.7 287.2 191.1 238.8 191.1 76.5 -191.1 214.7
M 17.75 -430.5
L 0 -451.9 -191.1 -221.7 -189.8 -223 -191.1 -221.65 -191.1 8.5 191.1 -194.4 191.1 -221.7 17.75 -430.5 Z"
      />

      <path
        fill="#8AE8E8"
        stroke="none"
        d="
M -191.1 -221.65
L -225.35 -187.4 -225.35 273.05 -34.2 464.2 -17.7 447.65 -191.1 238.75 -191.1 214.7 -191.1 8.5 -191.1 -221.65
M 42.8 -455.6
L 17.75 -430.5 191.1 -221.7 191.1 -194.4 191.1 76.5 191.1 238.8 190.85 239.1 225.35 204.6 225.35 -273.05 42.8 -455.6 Z"
      />
    </g>
  </g>
</svg>
